<svg xmlns="http://www.w3.org/2000/svg" viewBox="0 0 1200 230" width="1200" height="230" role="img" aria-label="A ranked 5-stack is imported the same evening, every kill is read, and the rounds to fix come out sorted by what they cost.">
  <rect x="1" y="1" width="1198" height="228" fill="#0f1c26" stroke="#253645" stroke-width="2"/>
  <g stroke="#33495b" stroke-width="2" stroke-dasharray="6 8" stroke-linecap="round">
    <path d="M228 88h96"/><path d="M528 88h96"/><path d="M828 88h96"/>
  </g>
  <g fill="none" stroke="#d9954a" stroke-width="2" stroke-linecap="round" stroke-linejoin="round"><g transform="translate(126 64) scale(2)"><circle cx="12" cy="12" r="10"/><path d="M22 12h-4"/><path d="M6 12H2"/><path d="M12 6V2"/><path d="M12 22v-4"/></g><g transform="translate(426 64) scale(2)"><path d="M21 15v4a2 2 0 0 1-2 2H5a2 2 0 0 1-2-2v-4"/><path d="m7 10 5 5 5-5"/><path d="M12 15V3"/></g><g transform="translate(726 64) scale(2)"><path d="m12.83 2.18a2 2 0 0 0-1.66 0L2.6 6.08a1 1 0 0 0 0 1.83l8.58 3.91a2 2 0 0 0 1.66 0l8.58-3.9a1 1 0 0 0 0-1.83Z"/><path d="m22 17.65-9.17 4.16a2 2 0 0 1-1.66 0L2 17.65"/><path d="m22 12.65-9.17 4.16a2 2 0 0 1-1.66 0L2 12.65"/></g><g transform="translate(1026 64) scale(2)"><circle cx="12" cy="12" r="9"/><circle cx="12" cy="12" r="5"/><circle cx="12" cy="12" r="1"/></g></g>
  <g font-family="Oswald, 'Arial Narrow', Helvetica, Arial, sans-serif" font-size="20" letter-spacing="3" fill="#ece8e1" text-anchor="middle"><text x="150" y="164">5-STACK PLAYED</text><text x="450" y="164">IMPORTED</text><text x="750" y="164">EVERY KILL READ</text><text x="1050" y="164">ROUNDS TO FIX</text></g>
  <g font-family="'Barlow Condensed', 'Arial Narrow', Helvetica, Arial, sans-serif" font-size="17" letter-spacing="1" fill="#868b8d" text-anchor="middle"><text x="150" y="190">ranked, the five of you</text><text x="450" y="190">the same evening</text><text x="750" y="190">position, economy, timing</text><text x="1050" y="190">sorted by what they cost</text></g>
</svg>
